<svg width="502" height="502" xmlns="http://www.w3.org/2000/svg" xmlns:xlink="http://www.w3.org/1999/xlink" overflow="hidden"><defs><clipPath id="clip0"><rect x="0" y="0" width="502" height="502"/></clipPath></defs><g clip-path="url(#clip0)"><path d="M421.953 501.971C409.212 501.971 396.441 497.105 386.712 487.408L251.001 351.722 115.315 487.408C95.8304 506.861 64.2307 506.861 44.7719 487.408L14.5941 457.224C-4.8647 437.77-4.8647 406.14 14.5941 386.681L150.274 251.001 14.5941 115.315C-4.8647 95.8304-4.8647 64.1994 14.5941 44.7719L44.7719 14.5941C64.1994-4.83345 95.8304-4.8647 115.289 14.5941L251.001 150.274 386.681 14.5941C406.198-4.8647 437.797-4.8647 457.224 14.5941L487.408 44.7719C506.861 64.2307 506.861 95.8616 487.408 115.315L351.722 251.001 487.408 386.681C506.861 406.14 506.861 437.77 487.408 457.224L457.224 487.408C447.5 497.105 434.729 501.971 421.953 501.971ZM251.001 300.21C256.662 300.21 262.094 302.455 266.074 306.466L416.833 457.224C419.625 459.984 424.286 459.984 427.046 457.224L457.224 427.046C460.016 424.286 459.984 419.594 457.224 416.807L306.466 266.074C298.132 257.741 298.132 244.23 306.466 235.896L457.224 85.1375C459.984 82.3769 460.016 77.6841 457.224 74.9237L427.046 44.7719C424.261 42.0114 419.625 42.0114 416.807 44.7719L266.074 195.531C258.085 203.526 243.918 203.526 235.896 195.531L85.1375 44.7719C82.3509 42.0114 77.6841 42.0114 74.9237 44.7719L44.7719 74.9549C41.9854 77.7101 42.0114 82.403 44.7719 85.1947L195.531 235.923C203.865 244.257 203.865 257.772 195.531 266.105L44.7719 416.865C42.0114 419.625 41.9854 424.317 44.7719 427.073L74.9549 457.256C77.7415 460.016 82.3769 460.016 85.1947 457.256L235.923 306.497C239.907 302.455 245.339 300.21 251.001 300.21Z" fill="#FFFFFF"/></g></svg>