<svg width="68" height="57" xmlns="http://www.w3.org/2000/svg" xmlns:xlink="http://www.w3.org/1999/xlink" overflow="hidden"><defs><clipPath id="clip0"><rect x="278" y="121" width="68" height="57"/></clipPath></defs><g clip-path="url(#clip0)" transform="translate(-278 -121)"><path d="M18.7273 73.0366C18.2404 73.0366 17.7535 72.8493 17.4164 72.4748 16.6673 71.7257 16.6673 70.5646 17.4164 69.8155L69.853 17.379C70.6021 16.6299 71.7631 16.6299 72.5122 17.379 73.2613 18.1281 73.2613 19.2892 72.5122 20.0382L20.0757 72.4748C19.7012 72.8493 19.2142 73.0366 18.7273 73.0366Z" transform="matrix(1 0 0 1.00469 267.005 104.323)"/><path d="M44.9456 68.3548C26.5554 68.3548 12.1353 46.8932 11.536 45.9943 11.124 45.3576 11.124 44.5711 11.536 43.9343 12.1353 42.998 26.5554 21.5364 44.9456 21.5364 63.3358 21.5364 77.7559 42.998 78.3552 43.8969 78.7672 44.5336 78.7672 45.3202 78.3552 45.9569 77.7559 46.8932 63.3358 68.3548 44.9456 68.3548ZM15.3939 44.9456C18.4652 49.1405 30.7128 64.6093 44.9456 64.6093 59.1784 64.6093 71.4261 49.1405 74.4973 44.9456 71.4261 40.7507 59.1784 25.2819 44.9456 25.2819 30.7128 25.2819 18.4652 40.7507 15.3939 44.9456Z" transform="matrix(1 0 0 1.00469 267.005 104.323)"/><path d="M44.9456 56.182C38.7656 56.182 33.7092 51.1256 33.7092 44.9456 33.7092 38.7656 38.7656 33.7092 44.9456 33.7092 51.1256 33.7092 56.182 38.7656 56.182 44.9456 56.182 51.1256 51.1256 56.182 44.9456 56.182ZM44.9456 37.4547C40.8256 37.4547 37.4547 40.8256 37.4547 44.9456 37.4547 49.0656 40.8256 52.4365 44.9456 52.4365 49.0656 52.4365 52.4365 49.0656 52.4365 44.9456 52.4365 40.8256 49.0656 37.4547 44.9456 37.4547Z" fill="currentcolor" transform="matrix(1 0 0 1.00469 267.005 104.323)"/></g></svg>