<svg width="77" height="53" xmlns="http://www.w3.org/2000/svg" xmlns:xlink="http://www.w3.org/1999/xlink" overflow="hidden"><defs><clipPath id="clip0"><rect x="0" y="0" width="77" height="53"/></clipPath></defs><g clip-path="url(#clip0)"><path d="M50.3814 76.6217C29.767 76.6217 13.603 52.5646 12.9312 51.557 12.4694 50.8433 12.4694 49.9616 12.9312 49.2478 13.603 48.1982 29.767 24.1411 50.3814 24.1411 70.9958 24.1411 87.1599 48.1982 87.8316 49.2059 88.2934 49.9196 88.2934 50.8013 87.8316 51.515 87.1599 52.5646 70.9958 76.6217 50.3814 76.6217ZM17.2556 50.3814C20.6984 55.0837 34.4273 72.4233 50.3814 72.4233 66.3355 72.4233 80.0645 55.0837 83.5072 50.3814 80.0645 45.6792 66.3355 28.3396 50.3814 28.3396 34.4273 28.3396 20.6984 45.6792 17.2556 50.3814Z" fill="currentcolor" transform="matrix(1.0126 0 0 1 -12.421 -23.9765)"/><path d="M50.3814 62.9768C43.454 62.9768 37.7861 57.3089 37.7861 50.3814 37.7861 43.454 43.454 37.7861 50.3814 37.7861 57.3089 37.7861 62.9768 43.454 62.9768 50.3814 62.9768 57.3089 57.3089 62.9768 50.3814 62.9768ZM50.3814 41.9845C45.7631 41.9845 41.9845 45.7631 41.9845 50.3814 41.9845 54.9997 45.7631 58.7783 50.3814 58.7783 54.9997 58.7783 58.7783 54.9997 58.7783 50.3814 58.7783 45.7631 54.9997 41.9845 50.3814 41.9845Z" fill="currentcolor" transform="matrix(1.0126 0 0 1 -12.421 -23.9765)"/></g></svg>