<svg width="419" height="419" xmlns="http://www.w3.org/2000/svg" xmlns:xlink="http://www.w3.org/1999/xlink" overflow="hidden"><defs><clipPath id="clip0"><rect x="0" y="0" width="419" height="419"/></clipPath></defs><g clip-path="url(#clip0)"><path d="M188.688 234.134C197.153 228.845 204.819 222.395 211.462 215.001L235.411 228.831 257.217 191.06 233.316 177.26C236.355 167.983 238.143 158.142 238.478 147.941L265.669 143.146 258.093 100.196 230.907 104.99C227.15 95.6786 222.109 87.0201 215.996 79.2389L233.768 58.0628 200.358 30.0307 182.602 51.1888C173.929 46.5414 164.538 43.0674 154.64 40.9828L154.64 13.3889 111.027 13.3889 111.027 40.9828C101.128 43.0674 91.7365 46.5414 83.063 51.1888L65.3079 30.0307 31.8982 58.0638 49.6673 79.2399C43.5556 87.0211 38.5151 95.6806 34.758 104.991L7.57219 100.197-2.84217e-14 143.147 27.1869 147.942C27.5219 158.144 29.3105 167.983 32.3493 177.263L8.44644 191.062 30.2537 228.832 54.2037 215.006C60.8446 222.397 68.5108 228.848 76.9762 234.137L67.5225 260.107 108.506 275.021 117.947 249.086C122.812 249.774 127.781 250.139 132.833 250.139 137.886 250.139 142.855 249.776 147.721 249.086L157.16 275.023 198.142 260.105 188.688 234.134ZM132.831 200.123C102.12 200.123 77.1353 175.139 77.1353 144.427 77.1353 113.717 102.12 88.7306 132.831 88.7306 163.542 88.7306 188.527 113.717 188.527 144.427 188.527 175.139 163.543 200.123 132.831 200.123Z" fill="#FFFFFF"/><path d="M376.15 266.884 357.349 272.966C353.764 266.735 349.333 261.093 344.23 256.182L354.737 239.413 328.283 222.838 317.782 239.593C311.176 237.154 304.176 235.619 296.95 235.121L294.224 215.556 263.303 219.866 266.029 239.431C259.218 241.885 252.9 245.28 247.211 249.43L232.535 236.182 211.617 259.357 226.305 272.62C222.742 278.739 220.027 285.375 218.283 292.351L198.533 291.637 197.404 322.834 217.153 323.55C218.399 330.751 220.64 337.545 223.713 343.827L208.13 355.974 227.321 380.596 242.934 368.428C248.374 373.012 254.448 376.827 260.97 379.743L256.831 399.092 287.362 405.614 291.496 386.295C295.013 386.305 298.57 386.065 302.151 385.567 305.734 385.069 309.223 384.317 312.601 383.352L321.86 400.808 349.442 386.181 340.173 368.704C345.655 364.117 350.447 358.784 354.429 352.888L372.773 360.326 384.503 331.394 366.195 323.97C367.429 317.093 367.724 309.939 366.959 302.67L385.763 296.585 376.15 266.884ZM297.215 350.107C275.438 353.139 255.254 337.895 252.222 316.12 249.184 294.345 264.432 274.159 286.209 271.128 307.983 268.091 328.162 283.339 331.202 305.116 334.232 326.889 318.988 347.069 297.215 350.107Z" fill="#FFFFFF"/><path d="M418.267 158.693 418.999 134.057 403.408 133.594C402.431 128.164 400.685 122.787 398.122 117.618L410.366 107.945 395.09 88.6096 382.849 98.2784C378.482 94.6503 373.653 91.6925 368.526 89.4598L371.691 74.1644 347.561 69.167 344.39 84.4524C338.83 84.4604 333.231 85.2496 327.745 86.8651L320.352 73.1341 298.65 84.8215 306.043 98.5545C301.679 102.242 297.934 106.491 294.864 111.124L280.364 105.352 271.25 128.252 285.763 134.033C284.807 139.542 284.621 145.194 285.248 150.837L270.435 155.736 278.169 179.138 292.983 174.24C295.883 179.228 299.41 183.639 303.412 187.445L295.218 200.717 316.187 213.667 324.399 200.371C329.685 202.267 335.23 203.423 340.856 203.786L343.109 219.243 367.499 215.681 365.252 200.243C367.855 199.286 370.424 198.133 372.939 196.779 375.455 195.426 377.831 193.911 380.064 192.268L391.715 202.642 408.107 184.238 396.447 173.852C399.243 168.951 401.324 163.685 402.652 158.229L418.267 158.693ZM359.54 171.894C344.254 180.123 325.126 174.386 316.901 159.107 308.668 143.826 314.406 124.693 329.691 116.468 344.969 108.236 364.096 113.977 372.329 129.258 380.553 144.541 374.819 163.663 359.54 171.894Z" fill="#FFFFFF"/></g></svg>