<svg width="89" height="667" xmlns="http://www.w3.org/2000/svg" xmlns:xlink="http://www.w3.org/1999/xlink" overflow="hidden"><defs><clipPath id="clip0"><rect x="0" y="0" width="89" height="667"/></clipPath><clipPath id="clip1"><path d="M-259.751 0.166667 407.638 0.166667 407.638 0.166667 407.638 666.484 407.638 666.484-259.751 666.484-259.751 666.484-259.751 0.166667Z" fill-rule="evenodd" clip-rule="evenodd"/></clipPath></defs><g clip-path="url(#clip0)"><g clip-path="url(#clip1)"><path d="M303.545 666.317 303.545 666.317 303.545 666.317 308.495 629.299 308.495 629.299 308.495 629.299C313.261 592.281 323.441 518.247 318.352 444.211L318.352 444.211 318.352 444.211C313.261 370.176 293.827 296.141 296.141 222.106L296.141 222.106 296.141 222.106C298.454 148.07 323.441 74.0351 335.61 37.0175L335.61 37.0175 347.965-4.06688e-05 347.965-4.06688e-05 259.123-4.06688e-05 259.123-4.06688e-05 259.123 37.0175 259.123 37.0175 259.123 37.0175C259.123 74.0351 259.123 148.07 259.123 222.106L259.123 222.106 259.123 222.106C259.123 296.141 259.123 370.176 259.123 444.211L259.123 444.211 259.123 444.211C259.123 518.247 259.123 592.281 259.123 629.299L259.123 629.299 259.123 666.317Z" stroke="#FFFFFF" stroke-width="0.61696" fill="#FFFFFF" transform="matrix(1.00161 0 0 -1 -259.751 666.484)"/></g></g></svg>